<svg width="37" height="36" viewBox="0 0 37 36" fill="none" xmlns="http://www.w3.org/2000/svg">
<path d="M27.5 33.1191C31.6421 33.1191 35 29.7613 35 25.6191C35 21.477 31.6421 18.1191 27.5 18.1191C23.3579 18.1191 20 21.477 20 25.6191C20 29.7613 23.3579 33.1191 27.5 33.1191Z" fill="#2072D6" stroke="#2072D6" stroke-width="2.2" stroke-linecap="round" stroke-linejoin="round"/>
<path d="M3 11.1191H31" stroke="#2072D6" stroke-width="2" stroke-linecap="round" stroke-linejoin="round"/>
<path d="M31 18.1875L31 6.45497C31 4.61839 29.5302 3.11914 27.7023 3.11914H6.29775C4.46978 3.11914 3 4.6059 3 6.45497V24.7833C3 26.6199 4.46978 28.1191 6.29775 28.1191H20.1557" stroke="#2072D6" stroke-width="2" stroke-linecap="round" stroke-linejoin="round"/>
<path d="M30 23.1191L25 28.1191" stroke="white" stroke-width="2" stroke-linecap="round" stroke-linejoin="round"/>
<path d="M30 28.1191L25 23.1191" stroke="white" stroke-width="2" stroke-linecap="round" stroke-linejoin="round"/>
<path d="M16.2508 7.99578C16.7658 7.99578 17.1833 7.5783 17.1833 7.06332C17.1833 6.54834 16.7658 6.13086 16.2508 6.13086C15.7358 6.13086 15.3184 6.54834 15.3184 7.06332C15.3184 7.5783 15.7358 7.99578 16.2508 7.99578Z" fill="#2072D6"/>
<path d="M12.0907 7.99578C12.6056 7.99578 13.0231 7.5783 13.0231 7.06332C13.0231 6.54834 12.6056 6.13086 12.0907 6.13086C11.5757 6.13086 11.1582 6.54834 11.1582 7.06332C11.1582 7.5783 11.5757 7.99578 12.0907 7.99578Z" fill="#2072D6"/>
<path d="M7.93246 7.98406C7.42942 7.98406 7 7.56691 7 7.0516C7 6.53629 7.41715 6.11914 7.93246 6.11914C8.44776 6.11914 8.86492 6.53629 8.86492 7.0516C8.86492 7.56691 8.44776 7.98406 7.93246 7.98406Z" fill="#2072D6"/>
</svg>
