<svg width="15" height="15" viewBox="0 0 15 15" fill="none" xmlns="http://www.w3.org/2000/svg">
<rect x="2.5" y="0.5" width="10" height="7" fill="white" stroke="#666666"/>
<path d="M10 3H5" stroke="#666666" stroke-linecap="round"/>
<mask id="path-3-inside-1_782_3531" fill="white">
<path fill-rule="evenodd" clip-rule="evenodd" d="M2 2C0.895431 2 0 2.89543 0 4V6V8V13C0 14.1046 0.89543 15 2 15H13C14.1046 15 15 14.1046 15 13V6C15 4.89543 14.1046 4 13 4H8C8 2.89543 7.10457 2 6 2H2Z"/>
</mask>
<path fill-rule="evenodd" clip-rule="evenodd" d="M2 2C0.895431 2 0 2.89543 0 4V6V8V13C0 14.1046 0.89543 15 2 15H13C14.1046 15 15 14.1046 15 13V6C15 4.89543 14.1046 4 13 4H8C8 2.89543 7.10457 2 6 2H2Z" fill="#BCBCBC"/>
<path d="M8 4H7V5H8V4ZM1 4C1 3.44772 1.44772 3 2 3V1C0.343146 1 -1 2.34315 -1 4H1ZM1 6V4H-1V6H1ZM1 8V6H-1V8H1ZM1 13V8H-1V13H1ZM2 14C1.44772 14 1 13.5523 1 13H-1C-1 14.6569 0.343146 16 2 16V14ZM13 14H2V16H13V14ZM14 13C14 13.5523 13.5523 14 13 14V16C14.6569 16 16 14.6569 16 13H14ZM14 6V13H16V6H14ZM13 5C13.5523 5 14 5.44772 14 6H16C16 4.34315 14.6569 3 13 3V5ZM8 5H13V3H8V5ZM6 3C6.55228 3 7 3.44772 7 4H9C9 2.34315 7.65685 1 6 1V3ZM2 3H6V1H2V3Z" fill="#666666" mask="url(#path-3-inside-1_782_3531)"/>
</svg>
