<svg width="15" height="16" viewBox="0 0 15 16" fill="none" xmlns="http://www.w3.org/2000/svg">
<circle cx="7.5" cy="8" r="7.5" fill="#929292"/>
<path d="M6.63696 9.875C6.64795 8.47974 7.04346 8.05127 7.7356 7.6228C8.20801 7.32617 8.55957 6.95264 8.55957 6.40332C8.55957 5.78809 8.08716 5.39258 7.48291 5.39258C6.93359 5.39258 6.40625 5.74414 6.37329 6.48022H5C5.03296 5.00806 6.14258 4.25 7.4939 4.25C8.97705 4.25 9.99878 5.07397 9.99878 6.38135C9.99878 7.27124 9.54834 7.85352 8.83423 8.28198C8.19702 8.6665 7.93335 9.05103 7.92236 9.875V9.97388H6.63696V9.875ZM7.31812 12.4019C6.8457 12.4019 6.46118 12.0173 6.46118 11.5449C6.46118 11.0835 6.8457 10.699 7.31812 10.699C7.76855 10.699 8.16406 11.0835 8.16406 11.5449C8.16406 12.0173 7.76855 12.4019 7.31812 12.4019Z" fill="white"/>
</svg>
