<svg width="15" height="16" viewBox="0 0 15 16" fill="none" xmlns="http://www.w3.org/2000/svg">
<mask id="path-1-inside-1_151_10147" fill="white">
<path d="M3 5.5C3 4.39543 3.89543 3.5 5 3.5H13C14.1046 3.5 15 4.39543 15 5.5V13.5C15 14.6046 14.1046 15.5 13 15.5H5C3.89543 15.5 3 14.6046 3 13.5V5.5Z"/>
</mask>
<path d="M5 4.5H13V2.5H5V4.5ZM14 5.5V13.5H16V5.5H14ZM13 14.5H5V16.5H13V14.5ZM4 13.5V5.5H2V13.5H4ZM5 14.5C4.44772 14.5 4 14.0523 4 13.5H2C2 15.1569 3.34315 16.5 5 16.5V14.5ZM14 13.5C14 14.0523 13.5523 14.5 13 14.5V16.5C14.6569 16.5 16 15.1569 16 13.5H14ZM13 4.5C13.5523 4.5 14 4.94772 14 5.5H16C16 3.84315 14.6569 2.5 13 2.5V4.5ZM5 2.5C3.34315 2.5 2 3.84315 2 5.5H4C4 4.94772 4.44772 4.5 5 4.5V2.5Z" fill="#666666" mask="url(#path-1-inside-1_151_10147)"/>
<mask id="path-3-inside-2_151_10147" fill="white">
<path d="M0 2.5C0 1.39543 0.895431 0.5 2 0.5H10C11.1046 0.5 12 1.39543 12 2.5V10.5C12 11.6046 11.1046 12.5 10 12.5H2C0.895431 12.5 0 11.6046 0 10.5V2.5Z"/>
</mask>
<path d="M-1 2.5C-1 0.843146 0.343146 -0.5 2 -0.5H9C10.6569 -0.5 12 0.843146 12 2.5C12 1.94772 11.1046 1.5 10 1.5H2C1.44772 1.5 1 1.94772 1 2.5H-1ZM12 12.5H0H12ZM2 12.5C0.343146 12.5 -1 11.1569 -1 9.5V2.5C-1 0.843146 0.343146 -0.5 2 -0.5V1.5C1.44772 1.5 1 1.94772 1 2.5V10.5C1 11.6046 1.44772 12.5 2 12.5ZM12 0.5V12.5V0.5Z" fill="#666666" mask="url(#path-3-inside-2_151_10147)"/>
</svg>
