<svg width="48" height="32" viewBox="0 0 48 32" fill="none" xmlns="http://www.w3.org/2000/svg">
<mask id="path-1-inside-1_151_12848" fill="white">
<path d="M0 12C0 5.37258 5.37258 0 12 0H36C42.6274 0 48 5.37258 48 12V32H0V12Z"/>
</mask>
<path d="M0 12C0 5.37258 5.37258 0 12 0H36C42.6274 0 48 5.37258 48 12V32H0V12Z" fill="#E6F8F1"/>
<path d="M-1 12C-1 4.8203 4.8203 -1 12 -1H36C43.1797 -1 49 4.8203 49 12H47C47 5.92487 42.0751 1 36 1H12C5.92487 1 1 5.92487 1 12H-1ZM48 32H0H48ZM-1 32V12C-1 4.8203 4.8203 -1 12 -1V1C5.92487 1 1 5.92487 1 12V32H-1ZM36 -1C43.1797 -1 49 4.8203 49 12V32H47V12C47 5.92487 42.0751 1 36 1V-1Z" fill="#19885D" mask="url(#path-1-inside-1_151_12848)"/>
<circle cx="16" cy="16" r="2" fill="white"/>
<circle cx="24" cy="16" r="2" fill="white"/>
<circle cx="32" cy="16" r="2" fill="white"/>
</svg>
